<svg xmlns="http://www.w3.org/2000/svg" xml:space="preserve" height="44px" width="auto" version="1.1" style="shape-rendering:geometricPrecision; text-rendering:geometricPrecision; image-rendering:optimizeQuality; fill-rule:evenodd; clip-rule:evenodd"
viewBox="0 0 15694.2 3328.82"
 xmlns:xlink="http://www.w3.org/1999/xlink"
 xmlns:xodm="http://www.corel.com/coreldraw/odm/2003">
 <defs>
  <style type="text/css">
   <![CDATA[
    .fil0 {fill:#8E977D}
    .fil1 {fill:#5F674F;fill-rule:nonzero}
    .fil2 {fill:#8E977D;fill-rule:nonzero}
   ]]>
  </style>
 </defs>
 <g id="Layer_x0020_1">
  <metadata id="CorelCorpID_0Corel-Layer"/>
  <path class="fil0" d="M933.25 2287.93c-63.46,-55.22 -133.09,-102.95 -207.46,-142.25 -151.09,245.61 -138.85,534.73 32.69,771.75 171.54,237.02 480.06,391.13 823.57,411.39 47.59,-305.8 -8.54,-618.72 -159.49,-888.87 -56.73,69.14 -121.09,128.75 -191.19,176.07 63.76,129.93 102.04,270.86 112.83,415.2 -23.88,-7.68 -47.15,-16.22 -69.74,-25.55 -130.86,-54.23 -236.45,-135.31 -304.1,-223.85 -67.63,-88.57 -98.81,-182.52 -98.81,-274.73 0,-49.05 8.84,-98.23 27.28,-147.22 9.03,-24.07 20.53,-48.14 34.42,-71.94zm114.64 59.89l60.82 -47.87c40.26,-36.56 78.52,-82.04 112.28,-134.81 -313.21,-332.1 -769.92,-488.59 -1220.99,-418.36 25.83,438.01 267.52,808.15 603.59,924.44 -18.83,-77.62 -24.59,-157.38 -16.3,-236.28 1.56,-14.99 3.62,-29.92 6.18,-44.79 -64.03,-39.19 -125.65,-95.92 -178.65,-169.64 -48.09,-66.89 -88.32,-147.47 -117.06,-235.87 287.06,21.49 555.23,151.31 750.13,363.19zm587.34 -664.47c-252.83,4.58 -494.88,82.23 -680.72,218.36 76.05,46.44 147.55,99.93 213.58,159.74 94.94,-55.52 209.63,-96.5 331.66,-115.25 53.11,-8.15 107.48,-12.08 161.82,-11.86 -16.6,-82.01 -25.47,-166.43 -26.35,-250.99zm-677.75 1010.7c308.52,-64.94 561.24,-344.45 652.42,-721.53 -78.85,3.76 -156.66,16.71 -229.31,38.12 -16.74,4.94 -33.24,10.32 -49.43,16.08 -3.49,9.3 -7.11,18.53 -10.9,27.61 -54.21,130.89 -135.28,236.47 -223.85,304.1 -59.26,45.26 -120.95,74.21 -182.9,88.4 -2.47,15.12 -4.01,30.22 -4.61,45.29 -2.5,61.48 10.02,123.67 40.1,185.45 2.69,5.49 5.52,10.98 8.48,16.47zm83.41 -1749.9c55.22,-63.48 102.95,-133.09 142.25,-207.46 -245.64,-151.09 -534.73,-138.85 -771.75,32.69 -237.02,171.54 -391.13,480.06 -411.39,823.57 305.78,47.59 618.69,-8.54 888.84,-159.49 -69.11,-56.73 -128.72,-121.09 -176.04,-191.19 -129.93,63.76 -270.86,102.04 -415.2,112.83 7.66,-23.88 16.19,-47.15 25.55,-69.74 54.21,-130.86 135.28,-236.45 223.85,-304.1 88.54,-67.63 182.52,-98.81 274.71,-98.81 49.07,0 98.23,8.84 147.25,27.28 24.07,9.03 48.14,20.53 71.94,34.42zm-59.89 114.64l47.87 60.82c36.56,40.26 82.04,78.52 134.79,112.28 332.1,-313.21 488.59,-769.92 418.36,-1220.99 -437.98,25.83 -808.15,267.52 -924.41,603.59 77.62,-18.83 157.38,-24.59 236.26,-16.3 14.99,1.56 29.92,3.62 44.82,6.18 39.17,-64.03 95.9,-125.65 169.64,-178.65 66.89,-48.09 147.47,-88.32 235.84,-117.06 -21.46,287.06 -151.31,555.23 -363.17,750.13zm664.47 587.34c-4.58,-252.83 -82.23,-494.88 -218.39,-680.72 -46.44,76.05 -99.9,147.55 -159.74,213.58 55.52,94.94 96.53,209.63 115.25,331.66 8.18,53.11 12.08,107.48 11.88,161.82 82.01,-16.6 166.43,-25.47 250.99,-26.35zm-1010.73 -677.75c64.96,308.52 344.47,561.24 721.56,652.42 -3.76,-78.85 -16.74,-156.66 -38.15,-229.31 -4.94,-16.74 -10.29,-33.24 -16.06,-49.43 -9.33,-3.49 -18.53,-7.11 -27.64,-10.9 -130.86,-54.21 -236.45,-135.28 -304.1,-223.85 -45.26,-59.26 -74.19,-120.95 -88.4,-182.9 -15.1,-2.5 -30.19,-4.01 -45.26,-4.61 -61.51,-2.5 -123.67,10.02 -185.45,40.1 -5.49,2.69 -10.98,5.49 -16.5,8.48zm1642.12 1416.3c-55.19,63.46 -102.95,133.06 -142.25,207.44 245.64,151.12 534.73,138.85 771.75,-32.69 237.05,-171.54 391.13,-480.03 411.39,-823.54 -305.78,-47.62 -618.69,8.54 -888.84,159.49 69.14,56.7 128.72,121.06 176.04,191.19 129.96,-63.76 270.89,-102.07 415.2,-112.83 -7.66,23.85 -16.19,47.15 -25.55,69.71 -54.21,130.89 -135.28,236.47 -223.85,304.1 -88.54,67.63 -182.52,98.83 -274.71,98.83 -49.07,0 -98.23,-8.87 -147.25,-27.28 -24.07,-9.06 -48.14,-20.53 -71.94,-34.42zm59.89 -114.64l-47.87 -60.85c-36.56,-40.24 -82.04,-78.52 -134.79,-112.25 -332.1,313.19 -488.59,769.92 -418.36,1220.96 437.98,-25.8 808.15,-267.49 924.41,-603.57 -77.62,18.83 -157.38,24.56 -236.26,16.3 -14.99,-1.56 -29.92,-3.62 -44.79,-6.18 -39.19,64.03 -95.92,125.65 -169.67,178.65 -66.89,48.06 -147.47,88.32 -235.84,117.06 21.46,-287.09 151.31,-555.23 363.17,-750.13zm-664.47 -587.37c4.58,252.86 82.26,494.91 218.39,680.72 46.44,-76.03 99.9,-147.52 159.74,-213.56 -55.52,-94.96 -96.5,-209.63 -115.25,-331.66 -8.15,-53.11 -12.08,-107.48 -11.88,-161.85 -82.01,16.6 -166.43,25.5 -250.99,26.35zm1010.73 677.78c-64.96,-308.52 -344.47,-561.27 -721.53,-652.42 3.73,78.85 16.71,156.63 38.12,229.28 4.94,16.77 10.29,33.26 16.08,49.43 9.3,3.51 18.5,7.14 27.61,10.9 130.89,54.23 236.45,135.31 304.1,223.85 45.26,59.28 74.19,120.95 88.4,182.93 15.1,2.47 30.19,4.01 45.26,4.61 61.51,2.5 123.67,-10.05 185.45,-40.13 5.49,-2.66 11.01,-5.49 16.5,-8.45zm-298.5 -1319.55c63.48,55.22 133.09,102.95 207.46,142.25 151.09,-245.64 138.85,-534.73 -32.69,-771.75 -171.54,-237.02 -480.03,-391.13 -823.54,-411.39 -47.62,305.78 8.54,618.69 159.46,888.84 56.73,-69.11 121.09,-128.72 191.22,-176.04 -63.78,-129.93 -102.07,-270.86 -112.86,-415.2 23.88,7.66 47.15,16.19 69.74,25.55 130.89,54.21 236.45,135.28 304.1,223.85 67.63,88.54 98.83,182.52 98.83,274.71 0,49.07 -8.87,98.23 -27.31,147.25 -9.03,24.07 -20.53,48.14 -34.42,71.94zm-114.64 -59.89l-60.82 47.87c-40.26,36.56 -78.52,82.04 -112.28,134.79 313.21,332.1 769.92,488.59 1220.99,418.36 -25.83,-437.98 -267.52,-808.15 -603.59,-924.41 18.86,77.62 24.59,157.38 16.33,236.26 -1.59,14.99 -3.65,29.92 -6.2,44.82 64.03,39.17 125.65,95.9 178.65,169.64 48.09,66.89 88.32,147.47 117.06,235.84 -287.06,-21.46 -555.23,-151.31 -750.13,-363.17zm-587.34 664.47c252.83,-4.58 494.91,-82.23 680.72,-218.39 -76.05,-46.44 -147.55,-99.9 -213.58,-159.74 -94.94,55.52 -209.63,96.53 -331.63,115.25 -53.14,8.18 -107.51,12.08 -161.85,11.88 16.6,82.01 25.47,166.43 26.35,250.99zm677.75 -1010.73c-308.52,64.96 -561.24,344.47 -652.42,721.56 78.85,-3.76 156.66,-16.74 229.31,-38.15 16.74,-4.94 33.24,-10.29 49.43,-16.06 3.49,-9.33 7.14,-18.53 10.9,-27.64 54.21,-130.86 135.28,-236.45 223.85,-304.1 59.26,-45.26 120.95,-74.19 182.9,-88.4 2.5,-15.1 4.01,-30.19 4.61,-45.26 2.5,-61.51 -10.02,-123.67 -40.1,-185.45 -2.66,-5.49 -5.49,-10.98 -8.48,-16.5z"/>
  <path class="fil1" d="M3779.62 2508.18l0 -101.47 55.33 0c50.94,0 89.03,-8.81 113.87,-26.87 25.28,-18.03 37.71,-54.54 37.71,-109.07l0 -1137.28c0,-70.56 -10.02,-115.47 -30.08,-135.12 -20.04,-19.65 -60.55,-29.28 -121.5,-29.28l-55.33 0 0 -99.46 1311.7 0 154 429.89 -103.06 38.92c-58.95,-136.35 -122.33,-226.98 -190.89,-271.91 -68.56,-44.49 -181.25,-66.97 -338.46,-66.97l-405.02 0 0 601.53 299.96 0c147.17,0 267.08,4.8 359.71,14.02 92.63,9.63 176.86,33.29 253.44,70.98 76.6,38.1 134.76,89.03 174.45,152.79 40.1,63.76 60.16,133.94 60.16,210.54 0,103.06 -33.29,192.48 -99.85,267.49 -66.97,74.98 -152,125.89 -255.44,151.97 -103.88,26.07 -236.2,39.3 -397.83,39.3l-822.86 0zm428.27 -794.01l0 535.36c0,54.12 2.8,87.42 8.01,100.64 6.42,11.64 17.65,20.06 34.09,24.48 19.65,4.01 58.16,6.01 115.11,6.01l159.6 0c154.8,0 266.67,-8.04 334.84,-24.48 68.59,-16.44 127.13,-53.33 175.65,-111.07 48.52,-57.75 72.57,-126.31 72.57,-205.71 0,-75.01 -23.25,-139.56 -69.77,-194.1 -46.52,-54.95 -107.48,-90.22 -182.46,-106.68 -74.98,-16.44 -185.26,-24.45 -330.83,-24.45l-316.81 0zm2701.24 14.44l-761.93 0 0 -134.73 761.93 0c0,-96.64 -14.02,-184.08 -41.69,-262.66 -27.67,-78.19 -67.38,-145.57 -119.12,-201.73 -101.06,-109.07 -234.99,-163.61 -401.81,-163.61 -119.09,0 -226.18,30.08 -321.2,89.83 -95.05,60.16 -186.47,189.27 -274.3,387.78l-109.07 -28.49 150.38 -545.38 83.41 0 37.68 109.1c123.92,-91.83 277.92,-137.97 461.97,-137.97 240.62,0 432.69,76.6 575.84,229.81 143.57,153.18 215.37,349.28 215.37,588.28 0,249.43 -69,457.96 -206.94,625.99 -137.94,168.02 -338.44,252.23 -601.92,252.23 -176.45,0 -329.63,-41.72 -460.35,-125.13 -130.34,-83.79 -231.78,-182.05 -303.96,-294.74l94.22 -64.96c68.18,94.25 156.8,174.45 266.67,241.03 109.48,66.14 229.39,99.44 359.32,99.44 152,0 283.11,-49.32 394.21,-147.58 110.66,-98.64 177.63,-270.67 201.29,-516.51zm463.62 -858.98l1149.3 0 151.58 429.5 -102.26 38.48c-58.54,-135.94 -121.92,-226.57 -190.48,-271.08 -68.56,-44.49 -181.25,-66.97 -338.46,-66.97l-248.61 0 0 1253.57c0,63.78 10.81,105.06 32.88,124.71 22.04,19.65 64.55,29.28 127.93,29.28l43.69 0 0 101.06 -625.58 0 0 -101.06 40.1 0c65.76,0 108.69,-10.02 129.13,-30.08 20.45,-19.65 30.47,-65.35 30.47,-136.74l0 -1112.83c0,-70.18 -10.81,-114.29 -32.88,-131.93 -22.04,-17.65 -58.95,-26.46 -111.49,-26.46l-55.33 0 0 -99.46zm1549.9 0l83.82 0 38.51 107.89c137.53,-91.04 285.11,-136.76 443.5,-136.76 175.24,0 314.39,40.13 418.28,120.71 103.86,80.22 155.98,182.87 155.98,307.59 0,91.83 -31.67,171.65 -95.05,239.8 -63.76,67.79 -148.37,113.9 -255.03,138.36 147.96,23.27 253.85,72.18 317.61,147.17 63.35,74.6 95.05,159.63 95.05,255.06 0,139.15 -63.78,255.06 -190.89,348.07 -127.13,93.04 -283.93,139.56 -470.4,139.56 -166.02,0 -312.39,-40.89 -439.11,-122.71 -127.13,-81.4 -224.97,-177.66 -293.95,-288.73l93.84 -64.55c58.95,87.42 144.78,165.2 257.86,232.58 113.08,67.76 232.58,101.47 359.3,101.47 127.54,0 232.19,-32.88 313.6,-98.26 81.4,-65.76 121.92,-151.58 121.92,-257.06 0,-92.63 -36.89,-170.41 -110.28,-232.58 -73.39,-62.17 -208.92,-93.04 -406.64,-93.04l-120.68 0 0 -113.08 153.59 0c122.3,0 222.94,-26.07 302.35,-77.81 79.4,-51.71 119.12,-133.94 119.12,-247.01 0,-108.27 -35.71,-187.26 -106.68,-237.41 -71.39,-50.12 -157.18,-75.39 -257.44,-75.39 -111.9,0 -214.55,32.08 -307.59,95.84 -93.04,64.17 -178.84,188.5 -257.03,373.76l-109.1 -29.67 145.57 -533.77z"/>
  <path class="fil2" d="M11615.42 1518.2l-103.53 288.1c-3.24,9.44 -4.91,15.64 -4.91,18.69 0,5.21 1.56,9.44 4.61,12.68 3.24,2.94 6.29,4.61 8.95,5.21l27.14 1.18 0 24.18 -120.35 0 0 -24.18c15.64,0 26.05,-2.55 31.45,-7.49 5.41,-5 11.99,-17.48 19.87,-37.44l125.26 -332.65 47.29 0 124.82 335.77c5.68,15.73 11.58,26.65 17.59,32.85 6.48,5.9 15.15,8.95 25.96,8.95l6.59 0 0 24.18 -143.41 0 0 -24.18 18.2 -0.6c14.55,0 21.93,-5.6 21.93,-16.71 0,-4.8 -2.66,-14.66 -8.07,-29.7l-99.41 -278.85zm453.3 -58.79c37.38,0 70.51,8.84 99.63,26.54 32.03,18.99 56.73,43.67 73.94,74.05 17.21,30.38 25.88,65.49 25.88,105.5 0,61.84 -19.29,112.28 -57.75,151.31 -38.45,39.06 -87.53,58.51 -147.19,58.51 -65.98,0 -118.68,-23.41 -158.12,-70.32 -31.76,-38.04 -47.59,-83.77 -47.59,-137.26 0,-38.92 8.95,-74.24 26.84,-105.69 17.89,-31.56 43.28,-56.54 76.22,-75.01 32.83,-18.39 68.92,-27.64 108.14,-27.64zm0.22 31.26c-30,0 -55.55,6.78 -76.9,20.45 -21.33,13.67 -38.53,33.92 -51.63,60.99 -13.17,26.92 -19.76,59.78 -19.76,98.61 0,37.05 6.29,68.72 18.99,94.88 12.68,26.24 29.78,46.22 51.21,60.08 21.55,13.86 45.83,20.75 72.87,20.75 26.43,0 49.95,-6.7 70.48,-20.06 20.56,-13.28 37.57,-34.8 51.13,-64.31 13.48,-29.59 20.26,-61.84 20.26,-96.86 0,-36.09 -6.67,-69.11 -20.15,-99 -11.5,-25.77 -26.95,-44.85 -46.22,-57.14 -19.27,-12.3 -42.68,-18.39 -70.29,-18.39zm-613.88 637.54l155.76 0 0 24.78 -11.01 0c-12.9,0 -21.74,1.45 -26.65,4.42 -4.91,2.94 -8.45,7.38 -10.81,13.06 -1.87,6.2 -2.85,14.46 -2.85,24.98l0 151.42 150.93 -159.38c7.38,-7.85 11.88,-13.17 13.56,-15.84 1.21,-2.44 2.11,-5.3 2.69,-8.34 0,-3.46 -1.76,-6.01 -5.13,-7.77 -3.35,-1.67 -10.62,-2.55 -21.82,-2.55l-9.25 0 0 -24.78 144.56 0 0 24.78c-11.42,0 -21.63,1.26 -30.96,3.73 -4.45,1.18 -8.48,2.55 -12.1,4.12 -3.65,1.67 -6.97,3.65 -9.83,5.9 -11.61,8.67 -19.98,15.53 -25.17,20.75l-108 110.03 123.31 162.54c5.21,7.08 10.13,13.26 14.77,18.58 4.61,5.21 8.45,9.14 11.61,11.61 6.09,5 12.95,8.95 20.45,11.8l13.06 2.25 19.27 0.88 0 24.78 -171.1 0 0 -24.78 10.13 0 4.03 0 3.24 0c6.89,0 11.2,-0.3 12.98,-0.88 2.85,-0.6 5.41,-1.98 7.47,-4.34 1.56,-2.06 2.66,-4.5 3.24,-7.47 0,-4.34 -6.67,-15.73 -19.95,-34.12l-90.76 -123.01 -51.21 52.92 0 76.68c0,13.17 1.26,22.12 3.73,26.84 2.55,4.72 6.7,8.26 12.68,10.81 4.42,1.67 16.03,2.55 34.91,2.55l0 24.78 -155.76 0 0 -24.78 12.1 0c12.1,0 20.26,-1.07 24.48,-3.35 4.23,-2.14 7.66,-6.18 10.24,-12.19 2.63,-5.9 3.92,-15.73 3.92,-29.59l0 -264.61c0,-13.56 -1.1,-22.89 -3.35,-27.91 -2.17,-5.1 -5.6,-8.87 -10.24,-11.12 -4.61,-2.25 -13.94,-3.43 -28.21,-3.43l-8.95 0 0 -24.78zm637.27 -7.08c37.38,0 70.51,8.84 99.63,26.54 32.03,18.99 56.73,43.67 73.97,74.05 17.21,30.38 25.85,65.49 25.85,105.5 0,61.84 -19.27,112.28 -57.75,151.31 -38.45,39.06 -87.53,58.51 -147.19,58.51 -65.98,0 -118.68,-23.41 -158.12,-70.32 -31.76,-38.04 -47.59,-83.77 -47.59,-137.26 0,-38.92 8.95,-74.24 26.84,-105.69 17.89,-31.56 43.28,-56.54 76.22,-75.01 32.83,-18.39 68.92,-27.64 108.14,-27.64zm0.22 31.26c-30,0 -55.55,6.78 -76.9,20.45 -21.33,13.67 -38.53,33.92 -51.63,60.99 -13.17,26.92 -19.76,59.78 -19.76,98.61 0,37.05 6.29,68.72 18.99,94.88 12.68,26.24 29.78,46.22 51.21,60.08 21.55,13.86 45.83,20.75 72.87,20.75 26.43,0 49.95,-6.7 70.48,-20.06 20.56,-13.28 37.57,-34.8 51.13,-64.31 13.48,-29.59 20.26,-61.84 20.26,-96.86 0,-36.09 -6.67,-69.11 -20.15,-99 -11.5,-25.77 -26.95,-44.85 -46.22,-57.14 -19.27,-12.3 -42.68,-18.39 -70.29,-18.39zm257.53 -24.18l155.73 0 0 24.78 -10.7 0c-11.69,0 -20.26,1.07 -25.66,3.35 -5.32,2.14 -9.14,5.79 -11.5,10.7 -1.87,5.41 -2.85,14.74 -2.85,28.13l0 111.79 208.26 0 0 -108.85 0 -5.21 0 -4.03 0 -3.13c0,-7.68 -0.49,-12.49 -1.48,-14.35 -1.48,-6.09 -4.83,-10.73 -10.05,-13.78 -2.63,-1.56 -5.87,-2.74 -9.52,-3.43 -3.65,-0.8 -8.15,-1.18 -13.56,-1.18l-15.84 0 0 -24.78 154.27 0 0 24.78 -13.86 0c-10.35,0 -17.89,1.18 -22.62,3.62 -4.64,2.36 -7.99,5.6 -9.74,9.74 -1.87,4.12 -2.74,12.98 -2.74,26.54l0 272.95c0,14.77 0.88,24.21 2.55,28.43 1.76,4.23 5.71,7.27 11.88,9.14 3.46,1.18 14.96,1.76 34.53,1.76l0 24.78 -154.27 0 0 -24.78 11.31 0c13.94,0 23.3,-0.88 27.91,-2.55 4.64,-1.76 7.77,-4.91 9.44,-9.52 1.18,-3.27 1.78,-13.48 1.78,-30.68l0 -124.19 -208.26 0 0 127.62c0,14.96 0.99,24.59 2.85,29.01 2.17,4.03 6.09,6.89 11.8,8.56 4.03,1.18 16.11,1.76 36.06,1.76l0 24.78 -155.73 0 0 -24.78 9.83 0c15.53,0 24.98,-0.77 28.32,-2.44 3.43,-1.59 6.18,-4.72 8.54,-9.36 2.28,-4.61 3.46,-12.68 3.46,-24.37l0 -276.11c0,-12.98 -1.1,-21.63 -3.16,-25.85 -1.76,-4.42 -4.8,-7.88 -9.25,-10.32 -4.42,-2.47 -11.58,-3.73 -21.63,-3.73l-16.11 0 0 -24.78zm792.81 0l20.75 0 36.67 133.91 -26.84 7.58c-14.35,-30.96 -25.36,-51.71 -32.83,-62.25 -12.1,-17.1 -27.53,-30.66 -46.22,-40.7 -18.69,-9.94 -38.84,-14.93 -60.38,-14.93 -26.05,0 -49.95,6.97 -71.47,20.83 -21.63,13.97 -39.25,34.61 -52.92,61.86 -13.67,27.34 -20.45,57.31 -20.45,90.16 0,35.19 6.89,66.17 20.56,93.01 13.75,26.73 32.44,47.48 56.24,62.03 23.71,14.66 48.77,21.93 75.31,21.93 25.28,0 51.32,-7.16 77.89,-21.63 26.54,-14.35 49.84,-34.91 69.8,-61.64l23.11 15.84c-12.3,18.28 -25.17,33.24 -38.64,44.93 -21.13,18.88 -43.94,33.24 -68.34,43.06 -24.37,9.94 -50.34,14.85 -77.86,14.85 -62.25,0 -112.97,-23.22 -152.11,-69.52 -32.36,-38.34 -48.47,-84.07 -48.47,-137.15 0,-38.45 8.95,-73.56 26.84,-105.5 17.79,-31.86 42.57,-57.14 74.24,-75.83 31.56,-18.58 65.38,-27.91 101.28,-27.91 19.76,0 37.93,2.66 54.37,7.96 16.41,5.32 33.13,13.86 50.23,25.58l9.25 -26.46zm265.7 0l47.59 0 124.88 335.77c6.09,16.91 12.27,28.13 18.36,33.73 3.35,2.66 7,4.72 11.03,5.98 2.25,0.6 4.5,1.1 6.59,1.48 2.17,0.41 4.72,0.6 7.85,0.6l6.31 0 0 24.18 -143.38 0 0 -24.18 13.59 -0.6c9.44,0 15.42,-0.88 18.17,-2.85 5.52,-3.43 8.37,-8.04 8.37,-13.75 0,-4.23 -2.74,-14.08 -8.07,-29.61l-26.54 -77.67 -145.82 0 -31.21 86.84c-3.24,9.44 -4.91,15.62 -4.91,18.66 0,3.46 0.91,6.78 2.77,9.85 1.87,3.05 4.61,5.3 8.54,6.86 2.09,0.6 4.45,1.1 7,1.48 2.63,0.3 5.9,0.49 9.72,0.49l12.71 0.3 0 24.18 -120.38 0 0 -24.18 6.39 0c2.28,0 4.91,-0.19 8.07,-0.6 2.85,0 6.01,-0.88 9.55,-2.55 5,-2.36 9.33,-5.9 12.98,-10.7 1.65,-2.28 3.73,-6.01 5.98,-11.23l8.37 -19.84 125.48 -332.65zm-50.34 224.78l124.08 0 -62.14 -173.07 -61.95 173.07zm463.48 -173.07l-103.53 288.1c-3.24,9.44 -4.91,15.64 -4.91,18.69 0,5.21 1.56,9.44 4.61,12.68 3.24,2.94 6.29,4.61 8.95,5.21l27.14 1.18 0 24.18 -120.35 0 0 -24.18c15.64,0 26.05,-2.55 31.45,-7.49 5.41,-5 11.99,-17.48 19.87,-37.44l125.26 -332.65 47.29 0 124.82 335.77c5.68,15.73 11.58,26.65 17.59,32.85 6.48,5.9 15.15,8.95 25.96,8.95l6.59 0 0 24.18 -143.38 0 0 -24.18 18.2 -0.6c14.55,0 21.93,-5.6 21.93,-16.71 0,-4.8 -2.66,-14.66 -8.07,-29.7l-99.44 -278.85zm248 -65.27l20.17 0 2.83 13.56 246.6 0 2.28 -13.56 21.02 0 42.4 118.07 -25.88 9.14c-12.08,-30.88 -26.84,-52.81 -44.24,-65.76 -17.48,-13.09 -39.33,-19.57 -65.57,-19.57 -11.5,0 -18.11,0.38 -19.68,1.18 -1.67,0.77 -3.24,2.25 -4.72,4.61l-0.88 6.29 -0.3 13.86 0 278.66c0,13.86 0.6,22.81 1.87,27.03 1.29,4.23 3.27,7.58 5.9,9.94 2.66,2.47 6.59,4.42 11.5,5.9 6.2,1.18 16.71,1.78 31.78,1.78l0 24.18 -155.45 0 0 -24.18c16.5,0 27.03,-0.6 31.45,-1.78 6.29,-1.67 11.01,-5.3 14.05,-10.7 3.05,-5.52 4.64,-15.45 4.64,-29.81l0 -284.83c0,-8.76 -0.49,-14.16 -1.48,-16.14 -0.49,-1.67 -2.06,-3.13 -4.42,-4.23 -2.36,-1.18 -7.49,-1.76 -15.15,-1.76 -20.83,0 -37.77,2.63 -50.53,8.04 -12.71,5.32 -24.48,14.35 -35.41,27.14 -10.81,12.79 -20.26,29.5 -28.32,50.14l-25.96 -9.14 41.5 -118.07zm357.05 13.56l155.73 0 0 24.78 -10.7 0c-16.71,0 -27.64,2.63 -32.85,8.04 -4.8,5.32 -7.16,16.71 -7.16,34.23l0 227.42 208.26 -224.56c0,-15.15 -0.6,-24.87 -1.87,-29.2 -1.29,-4.34 -4.53,-8.07 -9.85,-11.2 -5.21,-3.16 -12.87,-4.72 -22.89,-4.72l-15.53 0 0 -24.78 153.97 0 0 24.78 -13.86 0c-14.35,0 -23.8,2.63 -28.32,8.04 -4.53,5.32 -6.78,16.03 -6.78,31.86l0 273.14c0,17.7 2.06,28.82 6.09,33.35 4.23,3.84 15.53,5.79 33.92,5.79l8.95 0 0 24.78 -153.97 0 0 -24.78 11.01 0c13.56,0 22.81,-0.88 27.42,-2.55 4.72,-1.76 7.96,-4.61 9.63,-8.65 0.6,-2.17 1.1,-5.71 1.48,-10.81 0.38,-5.02 0.6,-11.91 0.6,-20.56l0 -219.95 -208.26 223.38c0,17.7 2.06,28.63 6.09,32.85 4.03,4.23 15.34,6.29 33.92,6.29l10.7 0 0 24.78 -155.73 0 0 -24.78 9.83 0c16.71,0 27.64,-1.76 32.63,-5.21 5.13,-3.43 7.68,-13.67 7.68,-30.77l0 -276.3c0,-16.22 -2.28,-26.92 -6.89,-32.14 -4.61,-5.21 -13.67,-7.77 -27.14,-7.77l-16.11 0 0 -24.78zm471.85 0l155.76 0 0 24.78 -10.7 0c-11.69,0 -20.26,1.07 -25.66,3.35 -5.32,2.14 -9.14,5.79 -11.5,10.7 -1.87,5.41 -2.85,14.74 -2.85,28.13l0 111.79 208.26 0 0 -108.85 0 -5.21 0 -4.03 0 -3.13c0,-7.68 -0.49,-12.49 -1.48,-14.35 -1.48,-6.09 -4.83,-10.73 -10.05,-13.78 -2.63,-1.56 -5.87,-2.74 -9.52,-3.43 -3.65,-0.8 -8.15,-1.18 -13.56,-1.18l-15.84 0 0 -24.78 154.27 0 0 24.78 -13.86 0c-10.35,0 -17.89,1.18 -22.62,3.62 -4.64,2.36 -7.99,5.6 -9.74,9.74 -1.87,4.12 -2.74,12.98 -2.74,26.54l0 272.95c0,14.77 0.88,24.21 2.55,28.43 1.76,4.23 5.71,7.27 11.88,9.14 3.46,1.18 14.96,1.76 34.53,1.76l0 24.78 -154.27 0 0 -24.78 11.31 0c13.94,0 23.3,-0.88 27.91,-2.55 4.64,-1.76 7.77,-4.91 9.44,-9.52 1.18,-3.27 1.78,-13.48 1.78,-30.68l0 -124.19 -208.26 0 0 127.62c0,14.96 0.99,24.59 2.85,29.01 2.17,4.03 6.09,6.89 11.8,8.56 4.03,1.18 16.11,1.76 36.06,1.76l0 24.78 -155.76 0 0 -24.78 9.83 0c15.53,0 24.98,-0.77 28.32,-2.44 3.43,-1.59 6.18,-4.72 8.54,-9.36 2.28,-4.61 3.46,-12.68 3.46,-24.37l0 -276.11c0,-12.98 -1.1,-21.63 -3.16,-25.85 -1.76,-4.42 -4.8,-7.88 -9.25,-10.32 -4.42,-2.47 -11.58,-3.73 -21.63,-3.73l-16.11 0 0 -24.78zm476.6 0l281.82 0 37.16 105.31 -25.06 9.44c-14.35,-33.35 -29.89,-55.55 -46.71,-66.47 -16.8,-10.92 -44.44,-16.41 -82.97,-16.41l-61.01 0 0 307.37c0,15.62 2.66,25.74 8.07,30.57 5.41,4.8 15.86,7.16 31.4,7.16l10.7 0 0 24.78 -153.4 0 0 -24.78 9.83 0c16.14,0 26.65,-2.44 31.67,-7.36 5,-4.83 7.47,-16.03 7.47,-33.54l0 -272.87c0,-17.18 -2.66,-28.02 -8.07,-32.33 -5.41,-4.34 -14.46,-6.5 -27.34,-6.5l-13.56 0 0 -24.37z"/>
  <polygon class="fil0" points="11057.64,2537.05 11057.64,840.62 11108.93,840.62 11108.93,2537.05 "/>
 </g>
</svg>